<mxfile host="app.diagrams.net" modified="2023-06-15T10:33:37.699Z" agent="Mozilla/5.0 (Windows NT 10.0; Win64; x64; rv:109.0) Gecko/20100101 Firefox/114.0" etag="3Q_I_F4_Kb8YiXRoRLdj" version="21.4.0" type="device">
  <diagram name="Page-1" id="cgonbCja52HcRxxtI9BN">
    <mxGraphModel dx="1430" dy="782" grid="1" gridSize="10" guides="1" tooltips="1" connect="1" arrows="1" fold="1" page="1" pageScale="1" pageWidth="850" pageHeight="1100" math="0" shadow="0">
      <root>
        <mxCell id="0" />
        <mxCell id="1" parent="0" />
        <mxCell id="2EVREi8c47YZ7FE-yw-8-1" value="&lt;p style=&quot;line-height: 120%; font-size: 22px;&quot;&gt;&lt;font style=&quot;font-size: 22px;&quot; color=&quot;#cccc00&quot;&gt;G&lt;/font&gt;&lt;/p&gt;" style="rounded=1;whiteSpace=wrap;html=1;" vertex="1" parent="1">
          <mxGeometry x="90" y="40" width="40" height="40" as="geometry" />
        </mxCell>
        <mxCell id="2EVREi8c47YZ7FE-yw-8-3" value="&lt;font style=&quot;font-size: 22px;&quot; color=&quot;#cc0000&quot;&gt;R&lt;/font&gt;" style="rounded=1;whiteSpace=wrap;html=1;" vertex="1" parent="1">
          <mxGeometry x="140" y="40" width="40" height="40" as="geometry" />
        </mxCell>
        <mxCell id="2EVREi8c47YZ7FE-yw-8-4" value="&lt;font style=&quot;font-size: 22px;&quot; color=&quot;#00cc00&quot;&gt;E&lt;/font&gt;" style="rounded=1;whiteSpace=wrap;html=1;" vertex="1" parent="1">
          <mxGeometry x="190" y="40" width="40" height="40" as="geometry" />
        </mxCell>
        <mxCell id="2EVREi8c47YZ7FE-yw-8-5" value="&lt;font style=&quot;font-size: 22px;&quot; color=&quot;#000000&quot;&gt;E&lt;/font&gt;" style="rounded=1;whiteSpace=wrap;html=1;" vertex="1" parent="1">
          <mxGeometry x="240" y="40" width="40" height="40" as="geometry" />
        </mxCell>
        <mxCell id="2EVREi8c47YZ7FE-yw-8-6" value="&lt;font style=&quot;font-size: 22px;&quot; color=&quot;#4d4d4d&quot;&gt;$&lt;/font&gt;" style="rounded=1;whiteSpace=wrap;html=1;" vertex="1" parent="1">
          <mxGeometry x="340" y="40" width="40" height="40" as="geometry" />
        </mxCell>
        <mxCell id="2EVREi8c47YZ7FE-yw-8-7" value="&lt;font style=&quot;font-size: 22px;&quot; color=&quot;#0000ff&quot;&gt;D&lt;/font&gt;" style="rounded=1;whiteSpace=wrap;html=1;" vertex="1" parent="1">
          <mxGeometry x="290" y="40" width="40" height="40" as="geometry" />
        </mxCell>
        <mxCell id="2EVREi8c47YZ7FE-yw-8-8" value="&lt;p style=&quot;line-height: 120%; font-size: 22px;&quot;&gt;&lt;font style=&quot;font-size: 22px;&quot; color=&quot;#cccc00&quot;&gt;G&lt;/font&gt;&lt;/p&gt;" style="rounded=1;whiteSpace=wrap;html=1;" vertex="1" parent="1">
          <mxGeometry x="90" y="40" width="40" height="40" as="geometry" />
        </mxCell>
        <mxCell id="2EVREi8c47YZ7FE-yw-8-9" value="&lt;p style=&quot;line-height: 120%; font-size: 22px;&quot;&gt;&lt;font style=&quot;font-size: 22px;&quot; color=&quot;#cccc00&quot;&gt;G&lt;/font&gt;&lt;/p&gt;" style="rounded=1;whiteSpace=wrap;html=1;" vertex="1" parent="1">
          <mxGeometry x="300" y="720" width="40" height="40" as="geometry" />
        </mxCell>
        <mxCell id="2EVREi8c47YZ7FE-yw-8-11" value="&lt;font style=&quot;font-size: 22px;&quot; color=&quot;#00cc00&quot;&gt;E&lt;/font&gt;" style="rounded=1;whiteSpace=wrap;html=1;" vertex="1" parent="1">
          <mxGeometry x="400" y="720" width="40" height="40" as="geometry" />
        </mxCell>
        <mxCell id="2EVREi8c47YZ7FE-yw-8-12" value="&lt;font style=&quot;font-size: 22px;&quot; color=&quot;#00cc00&quot;&gt;E&lt;/font&gt;" style="rounded=1;whiteSpace=wrap;html=1;" vertex="1" parent="1">
          <mxGeometry x="450" y="720" width="40" height="40" as="geometry" />
        </mxCell>
        <mxCell id="2EVREi8c47YZ7FE-yw-8-13" value="&lt;font style=&quot;font-size: 22px;&quot; color=&quot;#00cc00&quot;&gt;E&lt;/font&gt;" style="rounded=1;whiteSpace=wrap;html=1;" vertex="1" parent="1">
          <mxGeometry x="500" y="720" width="40" height="40" as="geometry" />
        </mxCell>
        <mxCell id="2EVREi8c47YZ7FE-yw-8-14" value="&lt;font style=&quot;font-size: 22px;&quot; color=&quot;#4d4d4d&quot;&gt;$&lt;/font&gt;" style="rounded=1;whiteSpace=wrap;html=1;" vertex="1" parent="1">
          <mxGeometry x="550" y="720" width="40" height="40" as="geometry" />
        </mxCell>
        <mxCell id="2EVREi8c47YZ7FE-yw-8-16" value="&lt;p style=&quot;line-height: 120%; font-size: 22px;&quot;&gt;&lt;font style=&quot;font-size: 22px;&quot; color=&quot;#cccc00&quot;&gt;G&lt;/font&gt;&lt;/p&gt;" style="rounded=1;whiteSpace=wrap;html=1;" vertex="1" parent="1">
          <mxGeometry x="240" y="580" width="40" height="40" as="geometry" />
        </mxCell>
        <mxCell id="2EVREi8c47YZ7FE-yw-8-17" value="&lt;p style=&quot;line-height: 120%; font-size: 22px;&quot;&gt;&lt;font style=&quot;font-size: 22px;&quot; color=&quot;#cccc00&quot;&gt;G&lt;/font&gt;&lt;/p&gt;" style="rounded=1;whiteSpace=wrap;html=1;" vertex="1" parent="1">
          <mxGeometry x="350" y="480" width="40" height="40" as="geometry" />
        </mxCell>
        <mxCell id="2EVREi8c47YZ7FE-yw-8-19" value="&lt;font style=&quot;font-size: 22px;&quot; color=&quot;#cc0000&quot;&gt;R&lt;/font&gt;" style="rounded=1;whiteSpace=wrap;html=1;" vertex="1" parent="1">
          <mxGeometry x="350" y="720" width="40" height="40" as="geometry" />
        </mxCell>
        <mxCell id="2EVREi8c47YZ7FE-yw-8-20" value="&lt;font style=&quot;font-size: 22px;&quot; color=&quot;#00cc00&quot;&gt;E&lt;/font&gt;" style="rounded=1;whiteSpace=wrap;html=1;" vertex="1" parent="1">
          <mxGeometry x="400" y="480" width="40" height="40" as="geometry" />
        </mxCell>
        <mxCell id="2EVREi8c47YZ7FE-yw-8-21" value="&lt;font style=&quot;font-size: 22px;&quot; color=&quot;#00cc00&quot;&gt;E&lt;/font&gt;" style="rounded=1;whiteSpace=wrap;html=1;" vertex="1" parent="1">
          <mxGeometry x="450" y="480" width="40" height="40" as="geometry" />
        </mxCell>
        <mxCell id="2EVREi8c47YZ7FE-yw-8-22" value="&lt;font style=&quot;font-size: 22px;&quot; color=&quot;#00cc00&quot;&gt;E&lt;/font&gt;" style="rounded=1;whiteSpace=wrap;html=1;" vertex="1" parent="1">
          <mxGeometry x="500" y="480" width="40" height="40" as="geometry" />
        </mxCell>
        <mxCell id="2EVREi8c47YZ7FE-yw-8-23" value="&lt;font style=&quot;font-size: 22px;&quot; color=&quot;#00cc00&quot;&gt;E&lt;/font&gt;" style="rounded=1;whiteSpace=wrap;html=1;" vertex="1" parent="1">
          <mxGeometry x="610" y="580" width="40" height="40" as="geometry" />
        </mxCell>
        <mxCell id="2EVREi8c47YZ7FE-yw-8-24" value="&lt;font style=&quot;font-size: 22px;&quot; color=&quot;#00cc00&quot;&gt;E&lt;/font&gt;" style="rounded=1;whiteSpace=wrap;html=1;" vertex="1" parent="1">
          <mxGeometry x="660" y="580" width="40" height="40" as="geometry" />
        </mxCell>
        <mxCell id="2EVREi8c47YZ7FE-yw-8-25" value="&lt;font style=&quot;font-size: 22px;&quot; color=&quot;#00cc00&quot;&gt;E&lt;/font&gt;" style="rounded=1;whiteSpace=wrap;html=1;" vertex="1" parent="1">
          <mxGeometry x="710" y="580" width="40" height="40" as="geometry" />
        </mxCell>
        <mxCell id="2EVREi8c47YZ7FE-yw-8-27" value="&lt;p style=&quot;line-height: 120%; font-size: 22px;&quot;&gt;&lt;font style=&quot;font-size: 22px;&quot; color=&quot;#cccc00&quot;&gt;G&lt;/font&gt;&lt;/p&gt;" style="rounded=1;whiteSpace=wrap;html=1;" vertex="1" parent="1">
          <mxGeometry x="80" y="380" width="40" height="40" as="geometry" />
        </mxCell>
        <mxCell id="2EVREi8c47YZ7FE-yw-8-28" value="&lt;p style=&quot;line-height: 120%; font-size: 22px;&quot;&gt;&lt;font style=&quot;font-size: 22px;&quot; color=&quot;#cccc00&quot;&gt;G&lt;/font&gt;&lt;/p&gt;" style="rounded=1;whiteSpace=wrap;html=1;" vertex="1" parent="1">
          <mxGeometry x="130" y="380" width="40" height="40" as="geometry" />
        </mxCell>
        <mxCell id="2EVREi8c47YZ7FE-yw-8-29" value="&lt;p style=&quot;line-height: 120%; font-size: 22px;&quot;&gt;&lt;font style=&quot;font-size: 22px;&quot; color=&quot;#cccc00&quot;&gt;G&lt;/font&gt;&lt;/p&gt;" style="rounded=1;whiteSpace=wrap;html=1;" vertex="1" parent="1">
          <mxGeometry x="180" y="380" width="40" height="40" as="geometry" />
        </mxCell>
        <mxCell id="2EVREi8c47YZ7FE-yw-8-30" value="&lt;p style=&quot;line-height: 120%; font-size: 22px;&quot;&gt;&lt;font style=&quot;font-size: 22px;&quot; color=&quot;#cccc00&quot;&gt;G&lt;/font&gt;&lt;/p&gt;" style="rounded=1;whiteSpace=wrap;html=1;" vertex="1" parent="1">
          <mxGeometry x="300" y="380" width="40" height="40" as="geometry" />
        </mxCell>
        <mxCell id="2EVREi8c47YZ7FE-yw-8-31" value="&lt;font style=&quot;font-size: 22px;&quot; color=&quot;#0000ff&quot;&gt;D&lt;/font&gt;" style="rounded=1;whiteSpace=wrap;html=1;" vertex="1" parent="1">
          <mxGeometry x="350" y="380" width="40" height="40" as="geometry" />
        </mxCell>
        <mxCell id="2EVREi8c47YZ7FE-yw-8-32" value="&lt;font style=&quot;font-size: 22px;&quot; color=&quot;#0000ff&quot;&gt;D&lt;/font&gt;" style="rounded=1;whiteSpace=wrap;html=1;" vertex="1" parent="1">
          <mxGeometry x="760" y="380" width="40" height="40" as="geometry" />
        </mxCell>
        <mxCell id="2EVREi8c47YZ7FE-yw-8-33" value="&lt;font style=&quot;font-size: 22px;&quot; color=&quot;#00cc00&quot;&gt;E&lt;/font&gt;" style="rounded=1;whiteSpace=wrap;html=1;" vertex="1" parent="1">
          <mxGeometry x="610" y="380" width="40" height="40" as="geometry" />
        </mxCell>
        <mxCell id="2EVREi8c47YZ7FE-yw-8-34" value="&lt;font style=&quot;font-size: 22px;&quot; color=&quot;#00cc00&quot;&gt;E&lt;/font&gt;" style="rounded=1;whiteSpace=wrap;html=1;" vertex="1" parent="1">
          <mxGeometry x="660" y="380" width="40" height="40" as="geometry" />
        </mxCell>
        <mxCell id="2EVREi8c47YZ7FE-yw-8-35" value="&lt;font style=&quot;font-size: 22px;&quot; color=&quot;#00cc00&quot;&gt;E&lt;/font&gt;" style="rounded=1;whiteSpace=wrap;html=1;" vertex="1" parent="1">
          <mxGeometry x="710" y="380" width="40" height="40" as="geometry" />
        </mxCell>
        <mxCell id="2EVREi8c47YZ7FE-yw-8-36" value="" style="endArrow=classic;html=1;rounded=0;" edge="1" parent="1">
          <mxGeometry width="50" height="50" relative="1" as="geometry">
            <mxPoint x="270" y="570" as="sourcePoint" />
            <mxPoint x="320" y="430" as="targetPoint" />
          </mxGeometry>
        </mxCell>
        <mxCell id="2EVREi8c47YZ7FE-yw-8-37" value="" style="endArrow=classic;html=1;rounded=0;" edge="1" parent="1">
          <mxGeometry width="50" height="50" relative="1" as="geometry">
            <mxPoint x="250" y="570" as="sourcePoint" />
            <mxPoint x="200" y="430" as="targetPoint" />
          </mxGeometry>
        </mxCell>
        <mxCell id="2EVREi8c47YZ7FE-yw-8-38" value="" style="endArrow=classic;html=1;rounded=0;" edge="1" parent="1">
          <mxGeometry width="50" height="50" relative="1" as="geometry">
            <mxPoint x="445" y="710" as="sourcePoint" />
            <mxPoint x="445" y="530" as="targetPoint" />
          </mxGeometry>
        </mxCell>
        <mxCell id="2EVREi8c47YZ7FE-yw-8-39" value="" style="endArrow=classic;html=1;rounded=0;" edge="1" parent="1">
          <mxGeometry width="50" height="50" relative="1" as="geometry">
            <mxPoint x="360" y="530" as="sourcePoint" />
            <mxPoint x="290" y="590" as="targetPoint" />
          </mxGeometry>
        </mxCell>
        <mxCell id="2EVREi8c47YZ7FE-yw-8-40" value="" style="endArrow=classic;html=1;rounded=0;" edge="1" parent="1">
          <mxGeometry width="50" height="50" relative="1" as="geometry">
            <mxPoint x="530" y="530" as="sourcePoint" />
            <mxPoint x="600" y="590" as="targetPoint" />
          </mxGeometry>
        </mxCell>
        <mxCell id="2EVREi8c47YZ7FE-yw-8-41" value="" style="endArrow=classic;html=1;rounded=0;" edge="1" parent="1">
          <mxGeometry width="50" height="50" relative="1" as="geometry">
            <mxPoint x="680" y="570" as="sourcePoint" />
            <mxPoint x="680" y="430" as="targetPoint" />
          </mxGeometry>
        </mxCell>
        <mxCell id="2EVREi8c47YZ7FE-yw-8-42" value="&lt;p style=&quot;line-height: 120%; font-size: 22px;&quot;&gt;&lt;font style=&quot;font-size: 22px;&quot; color=&quot;#cccc00&quot;&gt;G&lt;/font&gt;&lt;/p&gt;" style="rounded=1;whiteSpace=wrap;html=1;" vertex="1" parent="1">
          <mxGeometry x="560" y="380" width="40" height="40" as="geometry" />
        </mxCell>
        <mxCell id="2EVREi8c47YZ7FE-yw-8-43" value="&lt;font style=&quot;font-size: 22px;&quot; color=&quot;#0000ff&quot;&gt;D&lt;/font&gt;" style="rounded=1;whiteSpace=wrap;html=1;" vertex="1" parent="1">
          <mxGeometry x="1020" y="480" width="40" height="40" as="geometry" />
        </mxCell>
        <mxCell id="2EVREi8c47YZ7FE-yw-8-44" value="&lt;font style=&quot;font-size: 22px;&quot; color=&quot;#00cc00&quot;&gt;E&lt;/font&gt;" style="rounded=1;whiteSpace=wrap;html=1;" vertex="1" parent="1">
          <mxGeometry x="870" y="480" width="40" height="40" as="geometry" />
        </mxCell>
        <mxCell id="2EVREi8c47YZ7FE-yw-8-45" value="&lt;font style=&quot;font-size: 22px;&quot; color=&quot;#00cc00&quot;&gt;E&lt;/font&gt;" style="rounded=1;whiteSpace=wrap;html=1;" vertex="1" parent="1">
          <mxGeometry x="920" y="480" width="40" height="40" as="geometry" />
        </mxCell>
        <mxCell id="2EVREi8c47YZ7FE-yw-8-46" value="&lt;font style=&quot;font-size: 22px;&quot; color=&quot;#00cc00&quot;&gt;E&lt;/font&gt;" style="rounded=1;whiteSpace=wrap;html=1;" vertex="1" parent="1">
          <mxGeometry x="970" y="480" width="40" height="40" as="geometry" />
        </mxCell>
        <mxCell id="2EVREi8c47YZ7FE-yw-8-47" value="" style="endArrow=classic;html=1;rounded=0;" edge="1" parent="1">
          <mxGeometry width="50" height="50" relative="1" as="geometry">
            <mxPoint x="790" y="430" as="sourcePoint" />
            <mxPoint x="860" y="490" as="targetPoint" />
          </mxGeometry>
        </mxCell>
      </root>
    </mxGraphModel>
  </diagram>
</mxfile>
